<svg width="229" height="100" viewBox="0 0 229 100" fill="none" xmlns="http://www.w3.org/2000/svg">
<path d="M210.605 5.79801H224.746V41.8841H224.495H223.995V42.3841V43.2086H222.993H222.493V43.7086V58.2781V58.7781H222.993H223.995V59.6026V60.1026H224.495H224.746V79.6324H223.744H223.244V80.1324V86.0927V86.5927H223.744H224.746V91.553H162.928H162.769L162.64 91.6444L151.507 99.5H0.5V0.5H106.358L109.963 5.58709L110.112 5.79801H110.37H169.685H181.698H181.957L182.106 5.58709L185.711 0.5H193.062L196.293 5.56686L196.441 5.79801H196.715H210.605Z" fill="#D9D9D9" fill-opacity="0.17" stroke="#4ED6DF"/>
<path d="M163.353 93.3775H225.246V100H153.918L163.353 93.3775Z" fill="#4ED6DF"/>
<rect width="5.86388" height="0.313437" transform="matrix(0.561841 0.827245 0.884161 -0.467181 192.961 0.808655)" fill="#D9D9D9"/>
<path d="M225.997 39.0729H226.748V38.4106H227.498V37.7484H228.249V37.0861H229V76.8212H228.249V76.159H227.498V75.4967H226.748V74.8345H225.997V59.6902V58.9404H225.246V58.2782V57.6159H224.495H223.744V48.6755V44.3709H225.246V43.7086V43.0464H225.997V39.0729Z" fill="#4ED6DF"/>
<path d="M227.498 33.7748V33.1126H228.249V32.4503H229V35.7616H228.249V36.4238H227.498V37.0861H226.748V37.7483H225.997V34.4371H226.748V33.7748H227.498Z" fill="#4ED6DF"/>
<path d="M227.498 24.5033V23.8411H228.249V23.1788H229V26.4901H228.249V27.1523H227.498V27.8146H226.748V28.4768H225.997V25.1656H226.748V24.5033H227.498Z" fill="#4ED6DF"/>
<path d="M227.498 19.8676V19.2053H228.249V18.5431H229V21.8543H228.249V22.5166H227.498V23.1788H226.748V23.8411H225.997V20.5298H226.748V19.8676H227.498Z" fill="#4ED6DF"/>
<path d="M227.498 29.1391V28.4768H228.249V27.8146H229V31.1258H228.249V31.7881H227.498V32.4503H226.748V33.1126H225.997V29.8013H226.748V29.1391H227.498Z" fill="#4ED6DF"/>
<path d="M225.997 0H229V17.2185H228.249V17.8808H227.498V18.543H226.748V19.2053H225.997V17.2185V0Z" fill="#4ED6DF"/>
<path d="M194.462 0H225.246V4.63576H197.466L194.462 0Z" fill="#4ED6DF"/>
<path d="M107.367 0H137.4V4.63576H110.651L107.367 0Z" fill="#4ED6DF"/>
<path d="M184.702 0L154.669 0V4.63576L181.417 4.63576L184.702 0Z" fill="#4ED6DF"/>
<rect x="137.4" width="17.2689" height="4.63576" fill="#4ED6DF"/>
<rect x="103.613" width="1.50164" height="0.662252" fill="black"/>
<rect x="90.0984" width="1.50164" height="0.662252" fill="black"/>
<rect x="92.3508" width="1.50164" height="0.662252" fill="black"/>
<rect x="94.6033" width="1.50164" height="0.662252" fill="black"/>
<rect x="99.1082" width="1.50164" height="0.662252" fill="black"/>
<rect x="96.8557" width="1.50164" height="0.662252" fill="black"/>
<rect x="101.361" width="1.50164" height="0.662252" fill="black"/>
<path d="M3.0033 1.32449H105.115V2.649L103.613 1.98675H102.862L101.361 2.649L99.1082 1.98675H98.3574H95.7295L3.0033 2.649V1.32449Z" fill="#4ED6DF"/>
</svg>
